<svg xmlns="http://www.w3.org/2000/svg" xmlns:xlink="http://www.w3.org/1999/xlink" width="840" height="581.04"><rect width="840" height="581.04" rx="5" ry="5" class="a"/><svg y="0%" x="0%"><circle cx="20" cy="20" r="6" fill="#ff5f58"/><circle cx="40" cy="20" r="6" fill="#ffbd2e"/><circle cx="60" cy="20" r="6" fill="#18c132"/></svg><svg height="521.04" viewBox="0 0 80 52.104" width="800" x="15" xmlns="http://www.w3.org/2000/svg" xmlns:xlink="http://www.w3.org/1999/xlink" y="50"><style>@keyframes m{0%{transform:translateX(-80px)}20.8%{transform:translateX(-160px)}22.2%{transform:translateX(-240px)}22.9%{transform:translateX(-320px)}29.9%{transform:translateX(-400px)}38.2%{transform:translateX(-480px)}45.1%{transform:translateX(-560px)}52.1%{transform:translateX(-640px)}59%{transform:translateX(-720px)}66%{transform:translateX(-800px)}72.9%{transform:translateX(-880px)}79.9%{transform:translateX(-960px)}88.2%{transform:translateX(-1040px)}89.6%{transform:translateX(-1120px)}90.3%{transform:translateX(-1200px)}91%{transform:translateX(-1280px)}91.7%{transform:translateX(-1360px)}92.4%{transform:translateX(-1440px)}93.1%{transform:translateX(-1520px)}93.8%{transform:translateX(-1600px)}94.4%{transform:translateX(-1680px)}98.6%{transform:translateX(-1760px)}to{transform:translateX(-1840px)}}.a{fill:#282d35}.f,.g,.h,.i{fill:#b9c0cb;white-space:pre}.g,.h,.i{fill:#a8cc8c}.h,.i{fill:#dbab79}.i{fill:#e88388}</style><g font-family="Monaco,Consolas,Menlo,'Bitstream Vera Sans Mono','Powerline Symbols',monospace" font-size="1.67"><defs><symbol id="1"><text y="1.67" class="f">$</text><text x="2.004" y="1.67" class="f">npx</text><text x="6.012" y="1.67" class="f">xihe-rinian-seo</text><text x="22.044" y="1.67" class="f">audit</text><text x="28.056" y="1.67" class="f">https://example.com</text></symbol><symbol id="2"><text x="2.004" y="1.67" class="f">xihe-rinian-seo</text><text x="18.036" y="1.67" class="f">v0.3</text><text x="23.046" y="1.67" class="f">—</text><text x="25.05" y="1.67" class="f">SEO</text><text x="29.058" y="1.67" class="f">+</text><text x="31.062" y="1.67" class="f">AEO</text><text x="35.07" y="1.67" class="f">Audit</text><text x="41.082" y="1.67" class="f">Toolkit</text></symbol><symbol id="3"><text x="2.004" y="1.67" class="f">================================================</text></symbol><symbol id="4"><text x="2.004" y="1.67" class="f">[1/7]</text><text x="8.016" y="1.67" class="f">Technical</text><text x="18.036" y="1.67" class="f">SEO</text><text x="22.044" y="1.67" class="f">..............</text><text x="37.074" y="1.67" class="g">✅</text><text x="39.078" y="1.67" class="g">85/100</text></symbol><symbol id="5"><text x="2.004" y="1.67" class="f">[2/7]</text><text x="8.016" y="1.67" class="f">Content</text><text x="16.032" y="1.67" class="f">Quality</text><text x="24.048" y="1.67" class="f">............</text><text x="37.074" y="1.67" class="g">✅</text><text x="39.078" y="1.67" class="g">78/100</text></symbol><symbol id="6"><text x="2.004" y="1.67" class="f">[3/7]</text><text x="8.016" y="1.67" class="f">Structured</text><text x="19.038" y="1.67" class="f">Data</text><text x="24.048" y="1.67" class="f">............</text><text x="37.074" y="1.67" class="h">⚠️</text><text x="41.082" y="1.67" class="h">62/100</text></symbol><symbol id="7"><text x="2.004" y="1.67" class="f">[4/7]</text><text x="8.016" y="1.67" class="f">AI</text><text x="11.022" y="1.67" class="f">Crawlability</text><text x="24.048" y="1.67" class="f">............</text><text x="37.074" y="1.67" class="i">❌</text><text x="39.078" y="1.67" class="i">41/100</text></symbol><symbol id="8"><text x="2.004" y="1.67" class="f">[5/7]</text><text x="8.016" y="1.67" class="f">Citation</text><text x="17.034" y="1.67" class="f">Potential</text><text x="27.054" y="1.67" class="f">..........</text><text x="38.076" y="1.67" class="h">⚠️</text><text x="42.084" y="1.67" class="h">55/100</text></symbol><symbol id="9"><text x="2.004" y="1.67" class="f">[6/7]</text><text x="8.016" y="1.67" class="f">Competitor</text><text x="19.038" y="1.67" class="f">Gap</text><text x="23.046" y="1.67" class="f">Analysis</text><text x="32.064" y="1.67" class="f">.....</text><text x="38.076" y="1.67" class="g">✅</text><text x="40.08" y="1.67" class="g">72/100</text></symbol><symbol id="10"><text x="2.004" y="1.67" class="f">[7/7]</text><text x="8.016" y="1.67" class="f">International</text><text x="22.044" y="1.67" class="f">SEO</text><text x="26.052" y="1.67" class="f">..........</text><text x="37.074" y="1.67" class="g">✅</text><text x="39.078" y="1.67" class="g">88/100</text></symbol><symbol id="11"><text x="2.004" y="1.67" class="f">┌─────────────────────────────────────────────┐</text></symbol><symbol id="12"><text x="2.004" y="1.67" class="f">│</text><text x="5.01" y="1.67" class="f">Overall</text><text x="13.026" y="1.67" class="f">Score:</text><text x="20.04" y="1.67" style="white-space:pre" fill="#b9c0cb" font-weight="700">69/100</text><text x="48.096" y="1.67" class="f">│</text></symbol><symbol id="13"><text x="2.004" y="1.67" class="f">│</text><text x="5.01" y="1.67" class="f">SEO:</text><text x="10.02" y="1.67" class="g">82/100</text><text x="18.036" y="1.67" class="f">│</text><text x="21.042" y="1.67" class="f">AEO:</text><text x="26.052" y="1.67" class="h">53/100</text><text x="47.094" y="1.67" class="f">│</text></symbol><symbol id="14"><text x="2.004" y="1.67" class="f">│</text><text x="48.096" y="1.67" class="f">│</text></symbol><symbol id="15"><text x="2.004" y="1.67" class="f">│</text><text x="5.01" y="1.67" class="h">⚠</text><text x="8.016" y="1.67" class="f">AI</text><text x="11.022" y="1.67" class="f">crawlers</text><text x="20.04" y="1.67" class="f">blocked</text><text x="28.056" y="1.67" class="f">by</text><text x="31.062" y="1.67" class="f">robots.txt</text><text x="47.094" y="1.67" class="f">│</text></symbol><symbol id="16"><text x="2.004" y="1.67" class="f">│</text><text x="5.01" y="1.67" class="h">⚠</text><text x="8.016" y="1.67" class="f">Missing</text><text x="16.032" y="1.67" class="f">FAQ</text><text x="20.04" y="1.67" class="f">structured</text><text x="31.062" y="1.67" class="f">data</text><text x="47.094" y="1.67" class="f">│</text></symbol><symbol id="17"><text x="2.004" y="1.67" class="f">│</text><text x="5.01" y="1.67" class="h">⚠</text><text x="8.016" y="1.67" class="f">No</text><text x="11.022" y="1.67" class="f">AI-specific</text><text x="23.046" y="1.67" class="f">meta</text><text x="28.056" y="1.67" class="f">tags</text><text x="47.094" y="1.67" class="f">│</text></symbol><symbol id="18"><text x="2.004" y="1.67" class="f">└─────────────────────────────────────────────┘</text></symbol><symbol id="a"><path fill="transparent" d="M0 0h80v25H0z"/></symbol><symbol id="b"><path fill="#6f7683" d="M0 0h1.102v2.171H0z"/></symbol></defs><path class="a" d="M0 0h80v52.104H0z"/><g style="animation-duration:7.1999999999999975s;animation-iteration-count:infinite;animation-name:m;animation-timing-function:steps(1,end)"><svg width="1920"><svg><use xlink:href="#a"/><use xlink:href="#b" x="-.004"/></svg><svg x="80"><use xlink:href="#a"/><use xlink:href="#b" x="-.004" y="2.146"/><use xlink:href="#1"/></svg><svg x="160"><use xlink:href="#a"/><use xlink:href="#b" x="-.004" y="4.317"/><use xlink:href="#1"/></svg><svg x="240"><use xlink:href="#a"/><use xlink:href="#b" x="-.004" y="6.488"/><use xlink:href="#1"/><use xlink:href="#2" y="4.342"/></svg><svg x="320"><use xlink:href="#a"/><use xlink:href="#b" x="-.004" y="8.659"/><use xlink:href="#1"/><use xlink:href="#2" y="4.342"/><use xlink:href="#3" y="6.513"/></svg><svg x="400"><use xlink:href="#a"/><use xlink:href="#b" x="-.004" y="10.83"/><use xlink:href="#1"/><use xlink:href="#2" y="4.342"/><use xlink:href="#3" y="6.513"/></svg><svg x="480"><use xlink:href="#a"/><use xlink:href="#b" x="-.004" y="13.001"/><use xlink:href="#1"/><use xlink:href="#2" y="4.342"/><use xlink:href="#3" y="6.513"/><use xlink:href="#4" y="10.855"/></svg><svg x="560"><use xlink:href="#a"/><use xlink:href="#b" x="-.004" y="15.172"/><use xlink:href="#1"/><use xlink:href="#2" y="4.342"/><use xlink:href="#3" y="6.513"/><use xlink:href="#4" y="10.855"/><use xlink:href="#5" y="13.026"/></svg><svg x="640"><use xlink:href="#a"/><use xlink:href="#b" x="-.004" y="17.343"/><use xlink:href="#1"/><use xlink:href="#2" y="4.342"/><use xlink:href="#3" y="6.513"/><use xlink:href="#4" y="10.855"/><use xlink:href="#5" y="13.026"/><use xlink:href="#6" y="15.197"/></svg><svg x="720"><use xlink:href="#a"/><use xlink:href="#b" x="-.004" y="19.514"/><use xlink:href="#1"/><use xlink:href="#2" y="4.342"/><use xlink:href="#3" y="6.513"/><use xlink:href="#4" y="10.855"/><use xlink:href="#5" y="13.026"/><use xlink:href="#6" y="15.197"/><use xlink:href="#7" y="17.368"/></svg><svg x="800"><use xlink:href="#a"/><use xlink:href="#b" x="-.004" y="21.685"/><use xlink:href="#1"/><use xlink:href="#2" y="4.342"/><use xlink:href="#3" y="6.513"/><use xlink:href="#4" y="10.855"/><use xlink:href="#5" y="13.026"/><use xlink:href="#6" y="15.197"/><use xlink:href="#7" y="17.368"/><use xlink:href="#8" y="19.539"/></svg><svg x="880"><use xlink:href="#a"/><use xlink:href="#b" x="-.004" y="23.856"/><use xlink:href="#1"/><use xlink:href="#2" y="4.342"/><use xlink:href="#3" y="6.513"/><use xlink:href="#4" y="10.855"/><use xlink:href="#5" y="13.026"/><use xlink:href="#6" y="15.197"/><use xlink:href="#7" y="17.368"/><use xlink:href="#8" y="19.539"/><use xlink:href="#9" y="21.71"/></svg><svg x="960"><use xlink:href="#a"/><use xlink:href="#b" x="-.004" y="26.027"/><use xlink:href="#1"/><use xlink:href="#2" y="4.342"/><use xlink:href="#3" y="6.513"/><use xlink:href="#4" y="10.855"/><use xlink:href="#5" y="13.026"/><use xlink:href="#6" y="15.197"/><use xlink:href="#7" y="17.368"/><use xlink:href="#8" y="19.539"/><use xlink:href="#9" y="21.71"/><use xlink:href="#10" y="23.881"/></svg><svg x="1040"><use xlink:href="#a"/><use xlink:href="#b" x="-.004" y="28.198"/><use xlink:href="#1"/><use xlink:href="#2" y="4.342"/><use xlink:href="#3" y="6.513"/><use xlink:href="#4" y="10.855"/><use xlink:href="#5" y="13.026"/><use xlink:href="#6" y="15.197"/><use xlink:href="#7" y="17.368"/><use xlink:href="#8" y="19.539"/><use xlink:href="#9" y="21.71"/><use xlink:href="#10" y="23.881"/></svg><svg x="1120"><use xlink:href="#a"/><use xlink:href="#b" x="-.004" y="30.369"/><use xlink:href="#1"/><use xlink:href="#2" y="4.342"/><use xlink:href="#3" y="6.513"/><use xlink:href="#4" y="10.855"/><use xlink:href="#5" y="13.026"/><use xlink:href="#6" y="15.197"/><use xlink:href="#7" y="17.368"/><use xlink:href="#8" y="19.539"/><use xlink:href="#9" y="21.71"/><use xlink:href="#10" y="23.881"/><use xlink:href="#11" y="28.223"/></svg><svg x="1200"><use xlink:href="#a"/><use xlink:href="#b" x="-.004" y="32.54"/><use xlink:href="#1"/><use xlink:href="#2" y="4.342"/><use xlink:href="#3" y="6.513"/><use xlink:href="#4" y="10.855"/><use xlink:href="#5" y="13.026"/><use xlink:href="#6" y="15.197"/><use xlink:href="#7" y="17.368"/><use xlink:href="#8" y="19.539"/><use xlink:href="#9" y="21.71"/><use xlink:href="#10" y="23.881"/><use xlink:href="#11" y="28.223"/><use xlink:href="#12" y="30.394"/></svg><svg x="1280"><use xlink:href="#a"/><use xlink:href="#b" x="-.004" y="34.711"/><use xlink:href="#1"/><use xlink:href="#2" y="4.342"/><use xlink:href="#3" y="6.513"/><use xlink:href="#4" y="10.855"/><use xlink:href="#5" y="13.026"/><use xlink:href="#6" y="15.197"/><use xlink:href="#7" y="17.368"/><use xlink:href="#8" y="19.539"/><use xlink:href="#9" y="21.71"/><use xlink:href="#10" y="23.881"/><use xlink:href="#11" y="28.223"/><use xlink:href="#12" y="30.394"/><use xlink:href="#13" y="32.565"/></svg><svg x="1360"><use xlink:href="#a"/><use xlink:href="#b" x="-.004" y="36.882"/><use xlink:href="#1"/><use xlink:href="#2" y="4.342"/><use xlink:href="#3" y="6.513"/><use xlink:href="#4" y="10.855"/><use xlink:href="#5" y="13.026"/><use xlink:href="#6" y="15.197"/><use xlink:href="#7" y="17.368"/><use xlink:href="#8" y="19.539"/><use xlink:href="#9" y="21.71"/><use xlink:href="#10" y="23.881"/><use xlink:href="#11" y="28.223"/><use xlink:href="#12" y="30.394"/><use xlink:href="#13" y="32.565"/><use xlink:href="#14" y="34.736"/></svg><svg x="1440"><use xlink:href="#a"/><use xlink:href="#b" x="-.004" y="39.053"/><use xlink:href="#1"/><use xlink:href="#2" y="4.342"/><use xlink:href="#3" y="6.513"/><use xlink:href="#4" y="10.855"/><use xlink:href="#5" y="13.026"/><use xlink:href="#6" y="15.197"/><use xlink:href="#7" y="17.368"/><use xlink:href="#8" y="19.539"/><use xlink:href="#9" y="21.71"/><use xlink:href="#10" y="23.881"/><use xlink:href="#11" y="28.223"/><use xlink:href="#12" y="30.394"/><use xlink:href="#13" y="32.565"/><use xlink:href="#14" y="34.736"/><use xlink:href="#15" y="36.907"/></svg><svg x="1520"><use xlink:href="#a"/><use xlink:href="#b" x="-.004" y="41.224"/><use xlink:href="#1"/><use xlink:href="#2" y="4.342"/><use xlink:href="#3" y="6.513"/><use xlink:href="#4" y="10.855"/><use xlink:href="#5" y="13.026"/><use xlink:href="#6" y="15.197"/><use xlink:href="#7" y="17.368"/><use xlink:href="#8" y="19.539"/><use xlink:href="#9" y="21.71"/><use xlink:href="#10" y="23.881"/><use xlink:href="#11" y="28.223"/><use xlink:href="#12" y="30.394"/><use xlink:href="#13" y="32.565"/><use xlink:href="#14" y="34.736"/><use xlink:href="#15" y="36.907"/><use xlink:href="#16" y="39.078"/></svg><svg x="1600"><use xlink:href="#a"/><use xlink:href="#b" x="-.004" y="43.395"/><use xlink:href="#1"/><use xlink:href="#2" y="4.342"/><use xlink:href="#3" y="6.513"/><use xlink:href="#4" y="10.855"/><use xlink:href="#5" y="13.026"/><use xlink:href="#6" y="15.197"/><use xlink:href="#7" y="17.368"/><use xlink:href="#8" y="19.539"/><use xlink:href="#9" y="21.71"/><use xlink:href="#10" y="23.881"/><use xlink:href="#11" y="28.223"/><use xlink:href="#12" y="30.394"/><use xlink:href="#13" y="32.565"/><use xlink:href="#14" y="34.736"/><use xlink:href="#15" y="36.907"/><use xlink:href="#16" y="39.078"/><use xlink:href="#17" y="41.249"/></svg><svg x="1680"><use xlink:href="#a"/><use xlink:href="#b" x="-.004" y="45.566"/><use xlink:href="#1"/><use xlink:href="#2" y="4.342"/><use xlink:href="#3" y="6.513"/><use xlink:href="#4" y="10.855"/><use xlink:href="#5" y="13.026"/><use xlink:href="#6" y="15.197"/><use xlink:href="#7" y="17.368"/><use xlink:href="#8" y="19.539"/><use xlink:href="#9" y="21.71"/><use xlink:href="#10" y="23.881"/><use xlink:href="#11" y="28.223"/><use xlink:href="#12" y="30.394"/><use xlink:href="#13" y="32.565"/><use xlink:href="#14" y="34.736"/><use xlink:href="#15" y="36.907"/><use xlink:href="#16" y="39.078"/><use xlink:href="#17" y="41.249"/><use xlink:href="#18" y="43.42"/></svg><svg x="1760"><use xlink:href="#a"/><use xlink:href="#b" x="-.004" y="47.737"/><use xlink:href="#1"/><use xlink:href="#2" y="4.342"/><use xlink:href="#3" y="6.513"/><use xlink:href="#4" y="10.855"/><use xlink:href="#5" y="13.026"/><use xlink:href="#6" y="15.197"/><use xlink:href="#7" y="17.368"/><use xlink:href="#8" y="19.539"/><use xlink:href="#9" y="21.71"/><use xlink:href="#10" y="23.881"/><use xlink:href="#11" y="28.223"/><use xlink:href="#12" y="30.394"/><use xlink:href="#13" y="32.565"/><use xlink:href="#14" y="34.736"/><use xlink:href="#15" y="36.907"/><use xlink:href="#16" y="39.078"/><use xlink:href="#17" y="41.249"/><use xlink:href="#18" y="43.42"/></svg><svg x="1840"><use xlink:href="#a"/><use xlink:href="#b" x="-.004" y="49.908"/><use xlink:href="#1"/><use xlink:href="#2" y="4.342"/><use xlink:href="#3" y="6.513"/><use xlink:href="#4" y="10.855"/><use xlink:href="#5" y="13.026"/><use xlink:href="#6" y="15.197"/><use xlink:href="#7" y="17.368"/><use xlink:href="#8" y="19.539"/><use xlink:href="#9" y="21.71"/><use xlink:href="#10" y="23.881"/><use xlink:href="#11" y="28.223"/><use xlink:href="#12" y="30.394"/><use xlink:href="#13" y="32.565"/><use xlink:href="#14" y="34.736"/><use xlink:href="#15" y="36.907"/><use xlink:href="#16" y="39.078"/><use xlink:href="#17" y="41.249"/><use xlink:href="#18" y="43.42"/><text x="2.004" y="49.432" class="f">Full</text><text x="7.014" y="49.432" class="f">report:</text><text x="15.03" y="49.432" class="f">./audit-report-example.com.html</text></svg></svg></g></g></svg></svg>